<?xml version="1.0" encoding="UTF-8" standalone="no"?>
<!-- Created with Inkscape (http://www.inkscape.org/) -->

<svg
   width="210mm"
   height="297mm"
   viewBox="0 0 210 297"
   version="1.1"
   id="svg1"
   sodipodi:docname="DiegoToro.svg"
   inkscape:version="1.3 (0e150ed6c4, 2023-07-21)"
   xmlns:inkscape="http://www.inkscape.org/namespaces/inkscape"
   xmlns:sodipodi="http://sodipodi.sourceforge.net/DTD/sodipodi-0.dtd"
   xmlns="http://www.w3.org/2000/svg"
   xmlns:svg="http://www.w3.org/2000/svg">
  <sodipodi:namedview
     id="namedview1"
     pagecolor="#ffffff"
     bordercolor="#111111"
     borderopacity="1"
     inkscape:showpageshadow="0"
     inkscape:pageopacity="0"
     inkscape:pagecheckerboard="1"
     inkscape:deskcolor="#d1d1d1"
     inkscape:document-units="mm"
     inkscape:zoom="1.4142136"
     inkscape:cx="171.11984"
     inkscape:cy="12.374369"
     inkscape:window-width="1360"
     inkscape:window-height="697"
     inkscape:window-x="1358"
     inkscape:window-y="-8"
     inkscape:window-maximized="1"
     inkscape:current-layer="layer1" />
  <defs
     id="defs1">
    <inkscape:path-effect
       effect="powerclip"
       id="path-effect43"
       is_visible="true"
       lpeversion="1"
       inverse="true"
       flatten="false"
       hide_clip="false"
       message="Utilice la regla de relleno parimpar en el diálogo &lt;b&gt;Relleno y borde&lt;/b&gt; si el resultado no está aplanada después de convertir el recorte en trayectos." />
    <rect
       x="123.2307"
       y="311.4376"
       width="290.1523"
       height="100.82512"
       id="rect1" />
    <clipPath
       clipPathUnits="userSpaceOnUse"
       id="clipPath43">
      <path
         style="font-weight:bold;font-stretch:condensed;font-size:85.3333px;font-family:Bahnschrift;-inkscape-font-specification:'Bahnschrift Bold Condensed';white-space:pre;display:none;fill:#ffffff;stroke-width:0.27046"
         d="M 3.1162696,17.565837 3.1159786,14.79571 4.2312611,14.77442 C 4.5921366,14.76752 4.870092,14.657133 5.0649886,14.42256 5.2598854,14.180169 5.3573339,13.843948 5.3573339,13.413897 V 4.6643279 c 0,-0.437869 -0.097448,-0.7740901 -0.2923453,-1.0086631 C 4.870092,3.4210919 4.5921827,3.3038055 4.2312611,3.3038055 l -1.1149885,-0.013078 -0.00262,-2.77992063 1.388324,0.001585 c 1.1332877,0.001286 2.010324,0.33622102 2.6311082,1.00866303 0.6279989,0.6646222 0.9419995,1.602913 0.9419995,2.8148729 v 9.4063772 c 0,0.805366 -0.1407586,1.493448 -0.422275,2.064241 -0.2815172,0.570794 -0.6893573,1.008663 -1.2235204,1.313606 -0.5341612,0.297126 -1.1802086,0.445689 -1.9381403,0.445689 z m -2.68549756,0 V 0.51238867 H 3.1160172 L 3.1179222,17.569002 Z M 9.894093,3.3976336 V 0.51238867 h 2.685244 V 3.3976336 Z m 0,14.1682034 V 5.3915032 h 2.685244 V 17.565837 Z m 7.925803,0.175929 c -1.118852,0 -1.992279,-0.324492 -2.620279,-0.973477 -0.620782,-0.656804 -0.931173,-1.579458 -0.931173,-2.767961 V 9.1446707 c 0,-1.2666945 0.303173,-2.2440815 0.909518,-2.9321612 0.613563,-0.6880812 1.465335,-1.0321221 2.555315,-1.0321221 1.118851,0 1.985058,0.3362211 2.598621,1.0086631 0.613565,0.6724439 0.920347,1.6263742 0.920347,2.8617913 v 3.4482212 l -4.375033,-0.04061 3.7e-4,-2.091964 1.776087,0.0098 V 8.9218257 c 0,-0.3596775 -0.08301,-0.6411654 -0.249033,-0.8444632 -0.158806,-0.2032961 -0.382577,-0.304944 -0.671311,-0.304944 -0.267082,0 -0.476416,0.1094677 -0.628002,0.328403 -0.151587,0.2111158 -0.22738,0.512151 -0.22738,0.9031057 V 14.09416 c 0,0.33622 0.08301,0.59425 0.249034,0.774088 0.166025,0.179841 0.397013,0.26976 0.692967,0.26976 0.281518,0 0.49807,-0.07428 0.649656,-0.222846 0.151587,-0.148563 0.22738,-0.359678 0.22738,-0.633346 v -0.422231 l 2.587796,0.02345 v 0.34013 c 0,1.118131 -0.303173,1.986051 -0.909518,2.60376 -0.606346,0.609889 -1.458116,0.914833 -2.555314,0.914833 z m 8.607939,4.773559 c -1.082761,0 -1.923704,-0.304945 -2.52283,-0.914835 -0.599127,-0.609889 -0.89869,-1.46999 -0.89869,-2.5803 v -0.586431 l 2.674415,-0.02344 v 0.586433 c 0,0.258029 0.07219,0.457414 0.216554,0.598158 0.144368,0.148565 0.346483,0.222847 0.606346,0.222847 0.245425,0 0.436711,-0.07038 0.57386,-0.211116 0.137152,-0.140745 0.205727,-0.340131 0.205727,-0.598161 V 5.3915146 H 29.96846 V 19.008472 c 0,1.118131 -0.310391,1.982141 -0.931175,2.592031 -0.620781,0.60989 -1.490599,0.914834 -2.60945,0.914834 z m -1.256001,-4.7501 c -0.700186,0 -1.245174,-0.289307 -1.634966,-0.867922 -0.389794,-0.578612 -0.584691,-1.391799 -0.584691,-2.439557 V 8.4878667 c 0,-1.0477588 0.194897,-1.8570356 0.584691,-2.4278305 0.389792,-0.5786127 0.93478,-0.867919 1.634966,-0.867919 0.490851,0 0.942001,0.1954771 1.353449,0.5864315 0.411449,0.3831365 0.512774,0.3975018 0.758198,1.0934012 l -2.64e-4,2.0498755 c 0,-0.2423911 -0.03609,-0.4417785 -0.108278,-0.5981615 -0.06497,-0.1642012 -0.158803,-0.2893066 -0.281514,-0.375316 -0.122717,-0.08601 -0.274302,-0.129014 -0.454761,-0.129014 -0.274299,0 -0.487242,0.097738 -0.638828,0.2932142 -0.151586,0.1954781 -0.227379,0.473057 -0.227379,0.8327363 v 5.0902296 c 0,0.344042 0.07579,0.60989 0.227379,0.797547 0.151586,0.187659 0.364529,0.281488 0.638828,0.281488 0.180459,0 0.332044,-0.03909 0.454761,-0.117285 0.122711,-0.08601 0.216548,-0.211116 0.281514,-0.375319 0.07219,-0.164199 0.108278,-0.363585 0.108278,-0.598158 l 7.94e-4,2.101938 c -0.187677,0.656804 -0.329317,0.701208 -0.726332,1.076525 -0.389793,0.375316 -0.851769,0.562975 -1.385931,0.562975 z m 10.069669,-0.02345 c -1.061104,0 -1.887612,-0.289306 -2.479522,-0.867919 -0.591907,-0.586435 -0.887862,-1.403532 -0.887862,-2.451291 V 8.4409624 c 0,-1.039939 0.295955,-1.841396 0.887862,-2.4043711 0.59191,-0.5707949 1.418418,-0.8561925 2.479522,-0.8561925 1.068324,0 1.894829,0.2853976 2.479521,0.8561925 0.591907,0.5629751 0.887862,1.3644321 0.887862,2.4043711 v 6.0167936 c 0,1.039941 -0.295955,1.849219 -0.887862,2.427832 -0.584692,0.570792 -1.411197,0.856189 -2.479521,0.856189 z m 0.01085,-2.615486 c 0.223772,0 0.397013,-0.07819 0.519727,-0.234573 0.122711,-0.156383 0.184068,-0.383137 0.184068,-0.680262 V 8.6638077 c 0,-0.2736696 -0.06135,-0.4886952 -0.184068,-0.6450766 -0.122714,-0.1563815 -0.295955,-0.234572 -0.519727,-0.234572 -0.223771,0 -0.400621,0.078192 -0.530553,0.234572 -0.129934,0.1563814 -0.1949,0.371407 -0.1949,0.6450766 v 5.5476483 c 0,0.297125 0.06497,0.523878 0.194897,0.680262 0.129932,0.156381 0.306782,0.234573 0.530553,0.234573 z m 11.130773,2.439557 0.107643,-14.2633354 2.660337,4.234e-4 -0.08274,14.262897 z M 43.784486,3.3038166 V 0.51239997 h 7.882495 V 3.3038166 Z m 10.77346,14.4379604 c -1.061106,0 -1.887612,-0.289306 -2.479519,-0.867919 -0.59191,-0.586433 -0.887865,-1.403528 -0.887865,-2.451287 V 8.4409624 c 0,-1.039939 0.295955,-1.841396 0.887865,-2.4043711 0.591907,-0.5707949 1.418413,-0.8561925 2.479519,-0.8561925 1.068321,0 1.894829,0.2853976 2.479519,0.8561925 0.59191,0.5629751 0.887865,1.3644321 0.887865,2.4043711 v 6.0167936 c 0,1.039941 -0.295955,1.849219 -0.887865,2.427832 -0.58469,0.570792 -1.411198,0.856189 -2.479519,0.856189 z m 0.01085,-2.615486 c 0.223768,0 0.39701,-0.07819 0.519723,-0.234573 0.122714,-0.156384 0.184071,-0.383137 0.184071,-0.680262 V 8.6638077 c 0,-0.2736696 -0.06135,-0.4886952 -0.184068,-0.6450766 -0.122716,-0.1563815 -0.295958,-0.234572 -0.519726,-0.234572 -0.223772,0 -0.400622,0.078192 -0.530553,0.234572 -0.129932,0.1563814 -0.194898,0.371407 -0.194898,0.6450766 v 5.5476483 c 0,0.297125 0.06497,0.523878 0.194898,0.680262 0.129931,0.156381 0.306781,0.234573 0.530553,0.234573 z m 5.262213,2.439556 V 5.3915146 h 2.685246 V 17.565847 Z M 65.21232,8.2533032 h -0.292344 -0.389794 c -0.635217,0 -1.129679,0.2072066 -1.483379,0.6216203 -0.3537,0.4144124 -0.53055,0.9773862 -0.53055,1.6889235 l -0.003,-3.4075798 C 62.830871,6.4369087 63.017974,6.2281575 63.52326,5.8137457 64.035768,5.3915146 64.598804,5.1803988 65.212367,5.1803988 v 0 0 z m 4.46097,9.4884738 c -1.061106,0 -1.887614,-0.289306 -2.479519,-0.867919 -0.59191,-0.586433 -0.887865,-1.403528 -0.887865,-2.451287 V 8.4409624 c 0,-1.039939 0.295955,-1.841396 0.887865,-2.4043711 0.591905,-0.5707949 1.418413,-0.8561925 2.479519,-0.8561925 1.068324,0 1.894829,0.2853976 2.479519,0.8561925 0.59191,0.5629751 0.887865,1.3644321 0.887865,2.4043711 v 6.0167936 c 0,1.039941 -0.295955,1.849219 -0.887865,2.427832 -0.58469,0.570792 -1.411195,0.856189 -2.479519,0.856189 z m 0.01085,-2.615486 c 0.223769,0 0.39701,-0.07819 0.519724,-0.234573 0.122711,-0.156384 0.184068,-0.383137 0.184068,-0.680262 V 8.6638077 c 0,-0.2736696 -0.06136,-0.4886952 -0.184068,-0.6450766 -0.122714,-0.1563815 -0.295955,-0.234572 -0.519724,-0.234572 -0.223771,0 -0.400624,0.078192 -0.530553,0.234572 -0.129932,0.1563814 -0.194897,0.371407 -0.194897,0.6450766 v 5.5476483 c 0,0.297125 0.06497,0.523878 0.194897,0.680262 0.129929,0.156381 0.306782,0.234573 0.530553,0.234573 z"
         id="path43"
         aria-label="Diego Toro"
         sodipodi:nodetypes="ccscssssccscssscsccccccccccccccccccsscsssccccscscssssssccsccccssccscsssccssccsssscsccccssssssscccccsscsscscsscssssssssssssssccccccccccscsscscsscsssssssssssscccccccsscccscccscsscscsscssssssssssss" />
      <path
         id="lpe_path-effect43"
         style="font-weight:bold;font-stretch:condensed;font-size:85.3333px;font-family:Bahnschrift;-inkscape-font-specification:'Bahnschrift Bold Condensed';white-space:pre;fill:#ffffff;stroke-width:0.27046"
         class="powerclip"
         d="M -5,-4.9983309 H 104.88961 V 28.285002 H -5 Z m 8.1162696,22.5641679 1.374879,4e-6 c 0.7579317,0 1.4039791,-0.148563 1.9381403,-0.445689 0.5341631,-0.304943 0.9420032,-0.742812 1.2235204,-1.313606 0.2815164,-0.570793 0.422275,-1.258875 0.422275,-2.064241 V 4.3359278 c 0,-1.2119599 -0.3140006,-2.1502507 -0.9419995,-2.8148729 C 6.5123006,0.84861289 5.6352643,0.51367787 4.5019766,0.51239187 l -1.388324,-0.001585 0.00262,2.77992063 1.1149885,0.013078 c 0.3609216,0 0.6388309,0.1172864 0.8337275,0.3518593 0.1948973,0.234573 0.2923453,0.5707941 0.2923453,1.0086631 v 8.7495691 c 0,0.430051 -0.097449,0.766272 -0.2923453,1.008663 -0.1948966,0.234573 -0.472852,0.34496 -0.8337275,0.35186 l -1.1152825,0.02129 z m -2.68549756,0 2.68715016,0.0032 -0.00191,-17.05661333 H 0.43077204 Z M 9.894093,3.3976336 h 2.685244 V 0.51238867 H 9.894093 Z m 0,14.1682034 h 2.685244 V 5.3915032 H 9.894093 Z m 7.925803,0.175929 4.8e-5,-8e-6 c 1.097198,0 1.948968,-0.304944 2.555314,-0.914833 0.606345,-0.617709 0.909518,-1.485629 0.909518,-2.60376 v -0.34013 l -2.587796,-0.02345 v 0.422231 c 0,0.273668 -0.07579,0.484783 -0.22738,0.633346 -0.151586,0.148566 -0.368138,0.222846 -0.649656,0.222846 -0.295954,0 -0.526942,-0.08992 -0.692967,-0.26976 C 16.960953,14.68841 16.877943,14.43038 16.877943,14.09416 V 9.0039272 c 0,-0.3909547 0.07579,-0.6919899 0.22738,-0.9031057 0.151586,-0.2189353 0.36092,-0.328403 0.628002,-0.328403 0.288734,0 0.512505,0.1016479 0.671311,0.304944 0.166023,0.2032978 0.249033,0.4847857 0.249033,0.8444632 v 1.4544633 l -1.776087,-0.0098 -3.7e-4,2.091964 4.375033,0.04061 V 9.0508418 c 0,-1.2354171 -0.306782,-2.1893474 -0.920347,-2.8617913 -0.613563,-0.672442 -1.47977,-1.0086631 -2.598621,-1.0086631 -1.08998,0 -1.941752,0.3440409 -2.555315,1.0321221 -0.606345,0.6880797 -0.909518,1.6654667 -0.909518,2.9321612 v 4.8556573 c 0,1.188503 0.310391,2.111157 0.931173,2.767961 0.628,0.648985 1.501427,0.973477 2.620279,0.973477 z m 8.607939,4.773559 v 1.2e-5 c 1.118851,0 1.988669,-0.304944 2.60945,-0.914834 0.620784,-0.60989 0.931175,-1.4739 0.931175,-2.592031 V 5.3915146 H 27.283217 V 19.00848 c 0,0.25803 -0.06857,0.457416 -0.205727,0.598161 -0.137149,0.140736 -0.328435,0.211116 -0.57386,0.211116 -0.259863,0 -0.461978,-0.07428 -0.606346,-0.222847 C 25.75292,19.454166 25.68073,19.254781 25.68073,18.996752 v -0.586433 l -2.674415,0.02344 v 0.586431 c 0,1.11031 0.299563,1.970411 0.89869,2.5803 0.599126,0.60989 1.440069,0.914835 2.52283,0.914835 z m -1.256001,-4.7501 h -8.6e-5 c 0.534162,0 0.996138,-0.187659 1.385931,-0.562975 0.397015,-0.375317 0.538655,-0.419721 0.726332,-1.076525 l -7.94e-4,-2.101938 c 0,0.234573 -0.03609,0.433959 -0.108278,0.598158 -0.06497,0.164203 -0.158803,0.289309 -0.281514,0.375319 -0.122717,0.0782 -0.274302,0.117285 -0.454761,0.117285 -0.274299,0 -0.487242,-0.09383 -0.638828,-0.281488 -0.151589,-0.187657 -0.227379,-0.453505 -0.227379,-0.797547 V 8.9452844 c 0,-0.3596793 0.07579,-0.6372582 0.227379,-0.8327363 0.151586,-0.1954762 0.364529,-0.2932142 0.638828,-0.2932142 0.180459,0 0.332044,0.043004 0.454761,0.129014 0.122711,0.086009 0.216544,0.2111148 0.281514,0.375316 0.07219,0.156383 0.108278,0.3557704 0.108278,0.5981615 l 2.64e-4,-2.0498755 C 27.038057,6.1760505 26.936732,6.1616852 26.525283,5.7785487 26.113835,5.3875943 25.662685,5.1921172 25.171834,5.1921172 c -0.700186,0 -1.245174,0.2893063 -1.634966,0.867919 -0.389794,0.5707949 -0.584691,1.3800717 -0.584691,2.4278305 v 5.9698793 c 0,1.047758 0.194897,1.860945 0.584691,2.439557 0.389792,0.578615 0.93478,0.867922 1.634966,0.867922 z m 10.069669,-0.02345 v 2e-6 c 1.068324,0 1.894829,-0.285397 2.479521,-0.856189 0.591907,-0.578613 0.887862,-1.387891 0.887862,-2.427832 V 8.4409624 c 0,-1.039939 -0.295955,-1.841396 -0.887862,-2.4043711 -0.584692,-0.5707949 -1.411197,-0.8561925 -2.479521,-0.8561925 -1.061104,0 -1.887612,0.2853976 -2.479522,0.8561925 -0.591907,0.5629751 -0.887862,1.3644321 -0.887862,2.4043711 v 5.9816026 c 0,1.047759 0.295955,1.864856 0.887862,2.451291 0.59191,0.578613 1.418418,0.867919 2.479522,0.867919 z m 0.01085,-2.615486 c 0.223772,0 0.397013,-0.07819 0.519727,-0.234573 0.122711,-0.156383 0.184068,-0.383137 0.184068,-0.680262 V 8.6638077 c 0,-0.2736696 -0.06135,-0.4886952 -0.184068,-0.6450766 -0.122714,-0.1563815 -0.295955,-0.234572 -0.519727,-0.234572 -0.223771,0 -0.400621,0.078192 -0.530553,0.234572 -0.129934,0.1563814 -0.1949,0.371407 -0.1949,0.6450766 v 5.5476483 c 0,0.297125 0.06497,0.523878 0.194897,0.680262 0.129932,0.156381 0.306782,0.234573 0.530553,0.234573 z m 11.130773,2.439557 2.68524,-1.5e-5 0.08274,-14.262897 -2.660337,-4.234e-4 z M 43.784486,3.3038166 h 7.882495 V 0.51239997 h -7.882495 z m 10.77346,14.4379604 c 1.068321,0 1.894829,-0.285397 2.479519,-0.856189 0.59191,-0.578613 0.887865,-1.387891 0.887865,-2.427832 V 8.4409624 c 0,-1.039939 -0.295955,-1.841396 -0.887865,-2.4043711 -0.58469,-0.5707949 -1.411198,-0.8561925 -2.479519,-0.8561925 -1.061106,0 -1.887612,0.2853976 -2.479519,0.8561925 -0.59191,0.5629751 -0.887865,1.3644321 -0.887865,2.4043711 v 5.9816086 c 0,1.047759 0.295955,1.864854 0.887865,2.451287 0.591907,0.578613 1.418413,0.867919 2.479519,0.867919 z m 0.01085,-2.615486 c 0.223768,0 0.39701,-0.07819 0.519723,-0.234573 0.122714,-0.156384 0.184071,-0.383137 0.184071,-0.680262 V 8.6638077 c 0,-0.2736696 -0.06135,-0.4886952 -0.184068,-0.6450766 -0.122716,-0.1563815 -0.295958,-0.234572 -0.519726,-0.234572 -0.223772,0 -0.400622,0.078192 -0.530553,0.234572 -0.129932,0.1563814 -0.194898,0.371407 -0.194898,0.6450766 v 5.5476483 c 0,0.297125 0.06497,0.523878 0.194898,0.680262 0.129931,0.156381 0.306781,0.234573 0.530553,0.234573 z m 5.262213,2.439556 h 2.685246 V 5.3915146 h -2.685246 z m 5.381311,-9.3125438 4.7e-5,-3.0729044 v 0 0 c -0.613563,0 -1.176599,0.2111158 -1.689107,0.6333469 -0.505286,0.4144118 -0.692389,0.623163 -1.010007,1.3425215 l 0.003,3.4075798 c 0,-0.7115373 0.17685,-1.2745111 0.53055,-1.6889235 0.3537,-0.4144137 0.848162,-0.6216203 1.483379,-0.6216203 h 0.389794 z m 4.46097,9.4884738 c 1.068324,0 1.894829,-0.285397 2.479519,-0.856189 0.59191,-0.578613 0.887865,-1.387891 0.887865,-2.427832 V 8.4409624 c 0,-1.039939 -0.295955,-1.841396 -0.887865,-2.4043711 -0.58469,-0.5707949 -1.411195,-0.8561925 -2.479519,-0.8561925 -1.061106,0 -1.887614,0.2853976 -2.479519,0.8561925 -0.59191,0.5629751 -0.887865,1.3644321 -0.887865,2.4043711 v 5.9816086 c 0,1.047759 0.295955,1.864854 0.887865,2.451287 0.591905,0.578613 1.418413,0.867919 2.479519,0.867919 z m 0.01085,-2.615486 c 0.223769,0 0.39701,-0.07819 0.519724,-0.234573 0.122711,-0.156384 0.184068,-0.383137 0.184068,-0.680262 V 8.6638077 c 0,-0.2736696 -0.06136,-0.4886952 -0.184068,-0.6450766 -0.122714,-0.1563815 -0.295955,-0.234572 -0.519724,-0.234572 -0.223771,0 -0.400624,0.078192 -0.530553,0.234572 -0.129932,0.1563814 -0.194897,0.371407 -0.194897,0.6450766 v 5.5476483 c 0,0.297125 0.06497,0.523878 0.194897,0.680262 0.129929,0.156381 0.306782,0.234573 0.530553,0.234573 z" />
    </clipPath>
  </defs>
  <g
     inkscape:label="Capa 1"
     inkscape:groupmode="layer"
     id="layer1">
    <path
       style="fill:#000000;fill-opacity:1;stroke-width:0.200242"
       id="rect2"
       width="99.88961"
       height="23.283333"
       x="1.4320682e-08"
       y="0.0016691313"
       clip-path="url(#clipPath43)"
       inkscape:path-effect="#path-effect43"
       sodipodi:type="rect"
       d="M 1.4320682e-8,0.00166913 H 99.88961 V 23.285002 H 1.4320682e-8 Z" />
  </g>
</svg>
